<!DOCTYPE svg PUBLIC "-//W3C//DTD SVG 1.1//EN" "http://www.w3.org/Graphics/SVG/1.1/DTD/svg11.dtd">
<!-- Uploaded to: SVG Repo, www.svgrepo.com, Transformed by: SVG Repo Mixer Tools -->
<svg height="64px" width="64px" version="1.1" id="Layer_1" xmlns="http://www.w3.org/2000/svg" xmlns:xlink="http://www.w3.org/1999/xlink" viewBox="-51.2 -51.2 614.40 614.40" xml:space="preserve" fill="#000000">
<g id="SVGRepo_bgCarrier" stroke-width="0"/>
<g id="SVGRepo_tracerCarrier" stroke-linecap="round" stroke-linejoin="round"/>
<g id="SVGRepo_iconCarrier"> <path style="fill:#FFA400;" d="M504.032,244.501L304.003,44.473l-58.119,58.12c-3.418,35.532-18.731,70.138-45.943,97.348 c-27.213,27.214-61.817,42.528-97.349,45.942l-58.12,58.12l200.028,200.028l58.12-58.118c3.416-35.534,18.731-70.138,45.942-97.35 c27.212-27.211,61.816-42.525,97.35-45.942L504.032,244.501z"/> <path style="fill:#F6C65B;" d="M467.528,207.996L267.501,7.969l-58.12,58.12c-3.417,35.535-18.731,70.138-45.943,97.35 c-27.213,27.211-61.816,42.526-97.349,45.942L7.969,267.499L207.998,467.53l58.119-58.122c3.416-35.532,18.729-70.136,45.942-97.348 c27.212-27.211,61.816-42.525,97.349-45.942L467.528,207.996z"/> <path style="fill:#C3C6C8;" d="M318.831,156.666c-22.39-22.391-58.692-22.391-81.084,0L67.441,326.972l81.084,81.084 l170.308-170.307C341.225,215.357,341.223,179.056,318.831,156.666z"/> <path style="fill:#A4A9AD;" d="M335.447,192.866L134.39,393.919l14.136,14.138L318.834,237.75 C331.133,225.447,336.66,208.947,335.447,192.866z"/> <circle style="fill:#5C6670;" cx="278.293" cy="197.212" r="25.329"/> <path style="fill:#3E4A57;" d="M303.618,197.208c0-1.724-0.176-3.41-0.505-5.041h-49.649c-0.328,1.629-0.505,3.316-0.505,5.041 c-0.001,1.728,0.175,3.412,0.505,5.045l49.648-0.003C303.442,200.622,303.618,198.935,303.618,197.208z"/> <path d="M278.29,163.91c-18.36,0-33.298,14.938-33.298,33.298c-0.001,8.895,3.463,17.257,9.752,23.546 c6.289,6.288,14.651,9.752,23.546,9.752s17.257-3.464,23.546-9.753c6.289-6.289,9.753-14.651,9.752-23.545 C311.587,178.85,296.651,163.913,278.29,163.91z M290.566,209.483c-3.279,3.279-7.638,5.084-12.276,5.084 c-4.638,0-8.997-1.805-12.276-5.084c-3.278-3.278-5.084-7.637-5.084-12.276c0-9.572,7.787-17.36,17.359-17.36 c9.572,0.001,17.36,7.789,17.36,17.36C295.65,201.845,293.844,206.204,290.566,209.483z M509.666,238.867l-36.489-36.489 c-0.005-0.005-0.01-0.012-0.015-0.017L273.135,2.333C271.641,0.839,269.614,0,267.501,0c-2.113,0-4.141,0.839-5.634,2.333 l-58.12,58.12c-1.308,1.308-2.121,3.031-2.298,4.873c-3.35,34.84-18.85,67.683-43.645,92.477 c-24.797,24.797-57.64,40.297-92.476,43.645c-1.841,0.177-3.564,0.99-4.873,2.297L2.335,261.863 c-1.495,1.495-2.334,3.522-2.334,5.636c0,2.113,0.839,4.141,2.334,5.635l200.029,200.031c0.003,0.003,0.007,0.006,0.011,0.011 l36.492,36.492c1.556,1.556,3.596,2.333,5.634,2.333c2.039,0,4.079-0.779,5.634-2.333l58.12-58.118 c1.308-1.308,2.121-3.031,2.298-4.873c1.291-13.427,4.393-26.553,9.13-39.04c0.142-0.316,0.27-0.636,0.37-0.964 c7.564-19.542,19.152-37.48,34.145-52.474c14.996-14.995,32.939-26.585,52.484-34.149c0.323-0.099,0.64-0.224,0.951-0.366 c12.489-4.737,25.616-7.84,39.044-9.131c1.841-0.177,3.564-0.99,4.872-2.297l58.119-58.119 C512.778,247.023,512.778,241.979,509.666,238.867z M78.711,326.972l164.672-164.671c9.325-9.325,21.722-14.46,34.908-14.46 c13.186,0,25.582,5.135,34.907,14.46c9.325,9.322,14.46,21.72,14.46,34.906s-5.134,25.583-14.459,34.908L148.525,396.786 L78.711,326.972z M169.481,417.742L169.481,417.742l-9.686-9.685l164.673-164.673c12.334-12.335,19.126-28.734,19.126-46.178 s-6.794-33.842-19.128-46.174c-12.334-12.335-28.733-19.128-46.176-19.128c-17.443,0-33.843,6.794-46.178,19.127L67.441,315.702 l-48.202-48.203l50.489-50.487c12.282-1.398,24.317-4.17,35.893-8.196l16.823,16.823c1.556,1.556,3.596,2.333,5.634,2.333 c2.039,0,4.079-0.778,5.634-2.333c3.112-3.113,3.112-8.158,0-11.27l-12.069-12.069c5.228-2.448,10.33-5.163,15.284-8.139 l8.497,8.497c1.556,1.557,3.596,2.334,5.634,2.334c2.039,0,4.079-0.778,5.634-2.333c3.112-3.112,3.112-8.158,0-11.269l-6.253-6.254 c4.449-3.297,8.738-6.826,12.856-10.567l5.109,5.109c1.556,1.557,3.596,2.334,5.634,2.334s4.079-0.778,5.634-2.333 c3.112-3.112,3.112-8.158,0-11.27l-5.109-5.11c3.741-4.117,7.271-8.407,10.567-12.856l6.254,6.254 c1.556,1.556,3.596,2.333,5.634,2.333c2.039,0,4.079-0.778,5.634-2.333c3.112-3.113,3.112-8.158,0-11.27l-8.498-8.497 c2.975-4.954,5.692-10.058,8.139-15.286l12.07,12.071c1.556,1.557,3.596,2.334,5.634,2.334c2.039,0,4.079-0.778,5.634-2.333 c3.112-3.112,3.112-8.158,0-11.269l-16.824-16.825c4.026-11.577,6.798-23.612,8.196-35.893l50.49-50.489l150.245,150.241 l-0.001,0.001l38.516,38.516l-50.489,50.488c-12.28,1.399-24.315,4.171-35.891,8.197l-17.044-17.044 c-3.112-3.111-8.158-3.111-11.269,0c-3.112,3.113-3.112,8.158,0,11.27l12.289,12.289c-5.228,2.447-10.33,5.163-15.283,8.138 l-8.718-8.717c-3.112-3.111-8.158-3.111-11.269,0c-3.112,3.113-3.112,8.158,0,11.27l6.472,6.472 c-4.449,3.297-8.738,6.826-12.856,10.567l-5.327-5.328c-3.112-3.111-8.158-3.111-11.269,0c-3.112,3.113-3.112,8.158,0,11.27 l5.327,5.327c-3.741,4.118-7.27,8.408-10.567,12.856l-6.472-6.473c-3.112-3.111-8.158-3.111-11.269,0 c-3.112,3.113-3.112,8.158,0,11.27l8.716,8.716c-2.975,4.953-5.691,10.057-8.138,15.284l-12.289-12.289 c-3.112-3.111-8.158-3.111-11.269,0c-3.112,3.113-3.112,8.158,0,11.27l17.043,17.043c-4.026,11.576-6.798,23.611-8.196,35.891 l-50.488,50.491L169.481,417.742z M294.991,442.274l-50.49,50.488l-25.233-25.233l52.484-52.487c1.308-1.307,2.12-3.03,2.297-4.872 c0.903-9.391,2.697-18.635,5.309-27.618l23.829,23.829C299.161,417.957,296.389,429.992,294.991,442.274z M309.703,390.358 l-24.442-24.442c2.27-5.375,4.854-10.613,7.727-15.695l24.853,24.854C314.866,380.027,312.15,385.129,309.703,390.358z M326.866,361.559l-25.092-25.092c3.23-4.504,6.714-8.839,10.44-12.983l25.219,25.219 C333.692,352.822,330.163,357.111,326.866,361.559z M348.703,337.433l-25.219-25.219c4.143-3.726,8.478-7.209,12.982-10.44 l25.093,25.092C357.11,330.163,352.821,333.692,348.703,337.433z M375.073,317.842l-24.852-24.853 c5.081-2.873,10.32-5.457,15.694-7.725l24.441,24.441C385.129,312.15,380.028,314.866,375.073,317.842z M442.274,294.99 c-12.282,1.397-24.317,4.17-35.893,8.197l-23.828-23.829c8.983-2.613,18.227-4.406,27.619-5.309c1.841-0.177,3.564-0.99,4.872-2.297 l52.485-52.486l25.235,25.235L442.274,294.99z"/> </g>
</svg>